# xmcd
#
# Track frame offsets:
#	150
#	17214
#	36490
#	51444
#	67368
#	81176
#	96289
#	123987
#	141143
#	156293
#	174525
#	194228
#	210943
#	233097
#	261056
#	277448
#	298560
#
# Disc length: 4319 seconds
#
# Revision: 0
# Processed by: cddbd v1.5.2PL0 Copyright (c) Steve Scherf et al.
# Submitted via: audiograbber 1.83.01
#
DISCID=1110dd11
DTITLE=Mary-Chapin Carpenter - Party Doll and Other Favorites
DYEAR=1999
DGENRE=Country
TTITLE0=Can't Take Love for Granted
TTITLE1=Wherever You Are
TTITLE2=Down at the Twist and Shout [Live]
TTITLE3=I Feel Lucky
TTITLE4=Dreamland
TTITLE5=Passionate Kisses
TTITLE6=Quittin' Time [Live]
TTITLE7=This Shirt
TTITLE8=Grow Old with Me
TTITLE9=He Thinks He'll Keep Her
TTITLE10=I Take My Chances [Live]
TTITLE11=Shut Up and Kiss Me
TTITLE12=The Hard Way [Live]
TTITLE13=10,000 Miles
TTITLE14=Stones in the Road [Live]
TTITLE15=Almost Home
TTITLE16=Party Doll
EXTD=
EXTT0=
EXTT1=
EXTT2=
EXTT3=
EXTT4=
EXTT5=
EXTT6=
EXTT7=
EXTT8=
EXTT9=
EXTT10=
EXTT11=
EXTT12=
EXTT13=
EXTT14=
EXTT15=
EXTT16=
PLAYORDER=
